<svg xmlns="http://www.w3.org/2000/svg" viewBox="0 0 24 24" fill="currentColor"><path d="m9.525 3.572.902 2.005a2.75 2.75 0 0 1-.633 3.14L8.3 10.11a.25.25 0 0 0-.078.155c-.044.397.225 1.17.845 2.245.451.78.86 1.329 1.207 1.637.242.214.375.261.432.244l2.01-.614a2.75 2.75 0 0 1 3.035 1.02l1.28 1.775a2.75 2.75 0 0 1-.339 3.606l-.886.84a3.75 3.75 0 0 1-3.587.889c-2.754-.77-5.223-3.093-7.435-6.924-2.215-3.837-2.992-7.141-2.276-9.913a3.75 3.75 0 0 1 2.549-2.652l1.167-.352a2.75 2.75 0 0 1 3.301 1.506Zm-2.869-.07-1.167.352A2.25 2.25 0 0 0 3.96 5.445c-.602 2.332.087 5.26 2.123 8.788 2.033 3.522 4.222 5.582 6.54 6.229a2.25 2.25 0 0 0 2.151-.534l.887-.84a1.25 1.25 0 0 0 .154-1.638l-1.28-1.775a1.25 1.25 0 0 0-1.38-.464l-2.015.616c-1.17.349-2.232-.593-3.372-2.567C7 11.929 6.642 10.9 6.731 10.098c.047-.415.24-.8.546-1.085l1.494-1.394a1.25 1.25 0 0 0 .288-1.427l-.902-2.005a1.25 1.25 0 0 0-1.5-.685Zm10.492-1.498.102-.007a.75.75 0 0 1 .743.648l.007.102v3.254h3.252a.75.75 0 0 1 .743.649l.007.102a.75.75 0 0 1-.648.743l-.102.007L18 7.5v3.249a.75.75 0 0 1-.648.743l-.102.007a.75.75 0 0 1-.743-.648l-.007-.102V7.5l-3.252.002a.75.75 0 0 1-.743-.649l-.007-.101a.75.75 0 0 1 .649-.743l.101-.007L16.5 6V2.747a.75.75 0 0 1 .648-.743l.102-.007-.102.007Z"></path></svg>