<svg xmlns="http://www.w3.org/2000/svg" viewBox="0 0 24 24" fill="currentColor"><path d="M21.907 5.622c.062.208.093.424.093.641v11.475a2.25 2.25 0 0 1-2.891 2.157l-5.514-1.64a4 4 0 0 1-7.59-1.557L6 16.5l-.001-.5-2.39-.711A2.25 2.25 0 0 1 2 13.13v-2.262a2.25 2.25 0 0 1 1.61-2.157l15.5-4.606a2.25 2.25 0 0 1 2.797 1.516ZM7.499 16.444l.001.055a2.5 2.5 0 0 0 4.624 1.32l-4.625-1.375Zm12.037-10.9-15.5 4.606a.75.75 0 0 0-.536.72v2.261a.75.75 0 0 0 .536.719l15.5 4.607a.75.75 0 0 0 .964-.719V6.263a.75.75 0 0 0-.964-.719Z"></path></svg>