<svg xmlns="http://www.w3.org/2000/svg" viewBox="0 0 24 24" fill="currentColor"><path d="m7.057 2.418 1.167-.352a2.75 2.75 0 0 1 3.301 1.506l.902 2.005a2.75 2.75 0 0 1-.633 3.14L10.3 10.11a.25.25 0 0 0-.078.155c-.044.397.225 1.17.845 2.245.451.78.86 1.329 1.207 1.637.242.214.375.261.432.244l2.01-.614a2.75 2.75 0 0 1 3.035 1.02l1.28 1.775a2.75 2.75 0 0 1-.339 3.606l-.886.84a3.75 3.75 0 0 1-3.587.889c-2.754-.77-5.223-3.093-7.435-6.924-2.215-3.837-2.992-7.141-2.276-9.913a3.75 3.75 0 0 1 2.549-2.652Zm.432 1.436A2.25 2.25 0 0 0 5.96 5.445c-.602 2.332.087 5.26 2.123 8.788 2.033 3.522 4.222 5.582 6.54 6.229a2.25 2.25 0 0 0 2.151-.534l.887-.84a1.25 1.25 0 0 0 .154-1.638l-1.28-1.775a1.25 1.25 0 0 0-1.38-.464l-2.015.616c-1.17.349-2.232-.593-3.372-2.567C9 11.929 8.642 10.9 8.731 10.098c.047-.415.24-.8.546-1.085l1.494-1.394a1.25 1.25 0 0 0 .288-1.427l-.902-2.005a1.25 1.25 0 0 0-1.5-.685l-1.168.352Z"></path></svg>