<svg xmlns="http://www.w3.org/2000/svg" viewBox="0 0 24 24" fill="currentColor"><path d="M13.775 2a2.253 2.253 0 0 1 2.256 2.25v6.748a6.355 6.355 0 0 0-1.504.499V4.25a.751.751 0 0 0-.752-.75h-7.52a.751.751 0 0 0-.751.75v15.5c0 .414.337.75.752.75h5.013l-.288 1c0 .171.017.338.05.5H6.256A2.253 2.253 0 0 1 4 19.75V4.25C4 3.007 5.01 2 6.256 2h7.52Z"></path><path d="M11.136 19a6.346 6.346 0 0 1-.238-1.5l-2.137.004a.751.751 0 1 0 .002 1.5L11.136 19Z"></path><path fill-rule="evenodd" clip-rule="evenodd" d="M17.284 22.5a5.257 5.257 0 0 0 5.264-5.25c0-2.9-2.357-5.25-5.264-5.25a5.257 5.257 0 0 0-5.263 5.25c0 .923.239 1.791.658 2.545l-.637 2.087a.478.478 0 0 0 .597.596l2.093-.635a5.25 5.25 0 0 0 2.552.657Zm-2.256-6.75a.75.75 0 0 1 .752-.75h3.008a.751.751 0 1 1 0 1.5H15.78a.75.75 0 0 1-.752-.75Zm.752 3.75a.75.75 0 1 1 0-1.5h1.504a.75.75 0 1 1 0 1.5H15.78Z"></path></svg>