<svg xmlns="http://www.w3.org/2000/svg" viewBox="0 0 24 24" fill="currentColor"><path fill-rule="evenodd" clip-rule="evenodd" d="M12 2c5.523 0 10 4.477 10 10s-4.477 10-10 10S2 17.523 2 12 6.477 2 12 2Zm0 1.5a8.5 8.5 0 1 0 0 17 8.5 8.5 0 0 0 0-17Zm3.694 5.474c0-1.295-2.068-2.267-3.823-2.267-1.904 0-3.932.81-3.932 2.97 0 1.04.37 2.145 2.412 2.659l2.535.634c.767.19.959.622.959 1.012 0 .649-.644 1.283-1.808 1.283-1.314 0-1.764-.585-2.145-1.08-.278-.362-.52-.675-1.035-.675-.548 0-.945.378-.945.918 0 1.052 1.275 2.457 4.125 2.457 2.711 0 4.055-1.31 4.055-3.065 0-1.133-.521-2.335-2.576-2.794l-1.877-.418c-.713-.163-1.535-.378-1.535-1.052 0-.676.576-1.148 1.617-1.148 1.23 0 1.672.497 2.038.907.258.29.477.537.908.537.547 0 1.027-.323 1.027-.878Z"></path></svg>