<svg xmlns="http://www.w3.org/2000/svg" viewBox="0 0 24 24" fill="currentColor"><path d="m16.19 2.648-.239 1.03h-1.14l-.108.008c-.39.057-.69.412-.69.842l.007.116c.053.414.387.734.791.734h.75l-.414 1.796-.848.001-.108.008c-.39.056-.691.412-.691.842l.007.115c.053.415.388.735.792.735l.457-.001-.131.574-.019.114c-.041.416.212.811.605.914l.107.02c.392.043.763-.226.86-.644l.223-.978h1.64l-.125.586-.018.115c-.035.416.224.807.618.903l.107.018c.392.038.76-.237.85-.656l.207-.966h1.003l.108-.007c.39-.056.69-.412.69-.842l-.007-.115c-.052-.415-.387-.735-.791-.735h-.636l.387-1.797h.767l.108-.008c.39-.056.691-.412.691-.842l-.007-.115c-.053-.415-.387-.734-.792-.734h-.4l.138-.64.017-.114c.035-.416-.223-.807-.618-.903l-.107-.019c-.392-.037-.76.238-.85.657l-.22 1.018h-1.565l.146-.626.018-.114c.042-.416-.212-.811-.605-.913-.428-.112-.86.167-.966.623Zm1.015 2.73h1.589l-.387 1.796h-1.615l.413-1.796ZM9.525 3.572l.902 2.005a2.75 2.75 0 0 1-.633 3.14L8.3 10.11a.25.25 0 0 0-.078.155c-.044.397.225 1.17.845 2.245.451.78.86 1.329 1.207 1.637.242.215.375.261.432.244l2.01-.614a2.75 2.75 0 0 1 3.035 1.02l1.28 1.775a2.75 2.75 0 0 1-.339 3.606l-.886.84a3.75 3.75 0 0 1-3.587.889c-2.754-.77-5.223-3.093-7.435-6.924-2.215-3.837-2.992-7.141-2.276-9.913a3.75 3.75 0 0 1 2.549-2.652l1.167-.352a2.75 2.75 0 0 1 3.301 1.506Zm-2.869-.07-1.167.352A2.25 2.25 0 0 0 3.96 5.445c-.602 2.332.087 5.26 2.123 8.788 2.033 3.522 4.222 5.582 6.54 6.229a2.25 2.25 0 0 0 2.151-.534l.887-.84a1.25 1.25 0 0 0 .154-1.638l-1.28-1.775a1.25 1.25 0 0 0-1.38-.464l-2.015.616c-1.17.349-2.232-.593-3.372-2.567C7 11.929 6.642 10.9 6.731 10.098c.047-.415.24-.8.546-1.085l1.494-1.394a1.25 1.25 0 0 0 .288-1.427l-.902-2.005a1.25 1.25 0 0 0-1.5-.685Z"></path></svg>