<svg xmlns="http://www.w3.org/2000/svg" viewBox="0 0 24 24" fill="currentColor"><path d="M12 1.999c5.524 0 10.002 4.478 10.002 10.002 0 5.523-4.478 10.001-10.002 10.001-5.524 0-10.002-4.478-10.002-10.001C1.998 6.477 6.476 1.998 12 1.998Zm0 1.5a8.502 8.502 0 1 0 0 17.003A8.502 8.502 0 0 0 12 3.5ZM8.462 14.784A4.491 4.491 0 0 0 12 16.502a4.491 4.491 0 0 0 3.535-1.714.75.75 0 0 1 1.177.93A5.991 5.991 0 0 1 12 18.002a5.991 5.991 0 0 1-4.716-2.29.75.75 0 0 1 1.178-.928ZM9 8.75a1.25 1.25 0 1 1 0 2.499A1.25 1.25 0 0 1 9 8.75Zm6 0a1.25 1.25 0 1 1 0 2.499 1.25 1.25 0 0 1 0-2.499Z"></path></svg>