<svg xmlns="http://www.w3.org/2000/svg" viewBox="0 0 24 24" fill="currentColor"><path d="M14.75 13.666a2.75 2.75 0 0 0-2.745-2.745 2.75 2.75 0 0 0-2.744 2.745 2.75 2.75 0 0 0 2.744 2.744 2.75 2.75 0 0 0 2.744-2.744Zm-4.117 0c0-.761.622-1.373 1.372-1.373.75 0 1.372.612 1.372 1.373 0 .75-.621 1.372-1.372 1.372-.75 0-1.372-.622-1.372-1.372Zm7.547-.466a.69.69 0 0 0-.686.686v4.121a.69.69 0 0 1-.686.686H7.203a.69.69 0 0 1-.686-.686v-4.121a.69.69 0 0 0-.686-.686.69.69 0 0 0-.686.686v4.121c0 1.136.922 2.058 2.058 2.058h9.605a2.059 2.059 0 0 0 2.058-2.058v-4.121a.69.69 0 0 0-.686-.686Z"></path><path d="M12 3.6c3.998-.005 6.703 1.53 8.585 3.192.792.699 1.154 1.75.966 2.736l-.19.995c-.177.932-1.048 1.558-2.036 1.463l-1.965-.19c-.856-.082-1.491-.708-1.76-1.596-.365-1.206-.6-2.1-.6-2.1-.897-.368-1.784-.6-3-.6s-2.085.258-3 .6c0 0-.245.895-.6 2.1-.237.805-.605 1.508-1.444 1.592l-1.953.197c-.975.098-1.91-.522-2.187-1.45l-.297-.996c-.296-.99-.032-2.033.693-2.736C4.922 5.147 8.008 3.605 12 3.6Zm4.17 4.232.03.114.119.43c.103.367.25.884.43 1.476.163.541.466.725.726.75l1.965.19c.415.04.69-.213.743-.493l.19-.995c.105-.557-.097-1.185-.582-1.613C18.08 6.182 15.648 4.795 12 4.8c-3.69.005-6.474 1.43-7.953 2.868-.395.383-.55.957-.38 1.532l.298.995c.11.368.505.641.917.6l1.954-.197a.156.156 0 0 0 .064-.015.231.231 0 0 0 .06-.06c.084-.106.183-.307.288-.662a138.653 138.653 0 0 0 .55-1.923l.033-.116c.123-.44.55-.747.748-.846.983-.368 2.003-.676 3.42-.676 1.398 0 2.44.273 3.455.69.182.075.579.341.706.805l.002.009.007.028Z"></path></svg>